# xmcd
#
# Track frame offsets: 
#        150
#        18092
#        37915
#        56245
#        79685
#        96382
#        117182
#        139137
#        155670
#        185017
#        203147
#        236315
#        253540
#        273025
#
# Disc length: 3836 seconds
#
# Revision: 1
# Processed by: cddbd v1.5.2PL0 Copyright (c) Steve Scherf et al.
# Submitted via: ExactAudioCopy v1.2
#
DISCID=b60efa0e
DTITLE=Sista Monica Parker - Sista Monica
DYEAR=1997
DGENRE=Blues
TTITLE0=What Difference Does It Make?
TTITLE1=The Sista Don't Play
TTITLE2=I'm Falling Anyway
TTITLE3=How Long Does It Take?
TTITLE4=Festival Time Boogie
TTITLE5=Stop Talking Bout Me Stalking You
TTITLE6=Never Say Never
TTITLE7=I Been Bamboozled
TTITLE8=I Dont Want to Hurt You Baby
TTITLE9=Don't Come Around
TTITLE10=Where Is My Teddy (Dance JAM)
TTITLE11=Where Is My Teddy (Radio Edit)
TTITLE12=I'm Unhappy You're Unhappy With Me
TTITLE13=Amazing Grace-Motherless Child
EXTD=
EXTT0=
EXTT1=
EXTT2=
EXTT3=
EXTT4=
EXTT5=
EXTT6=
EXTT7=
EXTT8=
EXTT9=
EXTT10=
EXTT11=
EXTT12=
EXTT13=
PLAYORDER=
